<svg xmlns="http://www.w3.org/2000/svg" xmlns:xlink="http://www.w3.org/1999/xlink" width="500" zoomAndPan="magnify" viewBox="0 0 375 374.999991" height="500" preserveAspectRatio="xMidYMid meet" version="1.0"><defs><g/></defs><g fill="#000000" fill-opacity="1"><g transform="translate(176.244135, 193.124987)"><g><path d="M 3.78125 0.171875 C 3.207031 0.171875 2.679688 0.0859375 2.203125 -0.078125 C 1.734375 -0.253906 1.335938 -0.488281 1.015625 -0.78125 C 0.691406 -1.070312 0.453125 -1.394531 0.296875 -1.75 L 1 -2.671875 L 1.1875 -2.671875 C 1.414062 -2.179688 1.753906 -1.789062 2.203125 -1.5 C 2.648438 -1.21875 3.175781 -1.078125 3.78125 -1.078125 C 4.269531 -1.078125 4.664062 -1.15625 4.96875 -1.3125 C 5.28125 -1.476562 5.507812 -1.742188 5.65625 -2.109375 C 5.8125 -2.472656 5.890625 -2.96875 5.890625 -3.59375 L 5.890625 -11.421875 L 7.234375 -11.421875 L 7.234375 -3.578125 C 7.234375 -2.285156 6.941406 -1.335938 6.359375 -0.734375 C 5.785156 -0.128906 4.925781 0.171875 3.78125 0.171875 Z M 3.78125 0.171875 "/></g></g></g><g fill="#000000" fill-opacity="1"><g transform="translate(185.093541, 193.124987)"><g><path d="M 3.078125 0 L 1.734375 0 L 1.734375 -11.421875 L 3.078125 -11.421875 Z M 3.078125 0 "/></g></g></g><g fill="#000000" fill-opacity="1"><g transform="translate(189.897061, 193.124987)"><g><path d="M 3.78125 0.171875 C 3.207031 0.171875 2.679688 0.0859375 2.203125 -0.078125 C 1.734375 -0.253906 1.335938 -0.488281 1.015625 -0.78125 C 0.691406 -1.070312 0.453125 -1.394531 0.296875 -1.75 L 1 -2.671875 L 1.1875 -2.671875 C 1.414062 -2.179688 1.753906 -1.789062 2.203125 -1.5 C 2.648438 -1.21875 3.175781 -1.078125 3.78125 -1.078125 C 4.269531 -1.078125 4.664062 -1.15625 4.96875 -1.3125 C 5.28125 -1.476562 5.507812 -1.742188 5.65625 -2.109375 C 5.8125 -2.472656 5.890625 -2.96875 5.890625 -3.59375 L 5.890625 -11.421875 L 7.234375 -11.421875 L 7.234375 -3.578125 C 7.234375 -2.285156 6.941406 -1.335938 6.359375 -0.734375 C 5.785156 -0.128906 4.925781 0.171875 3.78125 0.171875 Z M 3.78125 0.171875 "/></g></g></g><path fill="#000000" d="M 187.484375 0 L 197.769531 135.777344 L 259.234375 14.265625 L 216.78125 143.640625 L 320.054688 54.917969 L 231.328125 158.1875 L 360.703125 115.738281 L 239.195312 177.203125 L 374.96875 187.484375 L 239.195312 197.769531 L 360.703125 259.234375 L 231.328125 216.78125 L 320.054688 320.054688 L 216.78125 231.328125 L 259.234375 360.703125 L 197.769531 239.195312 L 187.484375 374.96875 L 177.203125 239.195312 L 115.738281 360.703125 L 158.1875 231.328125 L 54.917969 320.054688 L 143.640625 216.78125 L 14.269531 259.234375 L 135.777344 197.769531 L 0 187.484375 L 135.777344 177.203125 L 14.269531 115.738281 L 143.640625 158.1875 L 54.917969 54.917969 L 158.1875 143.640625 L 115.738281 14.265625 L 177.203125 135.777344 Z M 187.484375 0 " fill-opacity="1" fill-rule="evenodd"/></svg>