<svg xmlns="http://www.w3.org/2000/svg" xmlns:xlink="http://www.w3.org/1999/xlink" width="500" zoomAndPan="magnify" viewBox="0 0 375 374.999991" height="500" preserveAspectRatio="xMidYMid meet" version="1.0"><defs><clipPath id="4c9e513e6f"><path d="M 193 33.058594 L 374.996094 33.058594 L 374.996094 333 L 193 333 Z M 193 33.058594 " clip-rule="nonzero"/></clipPath><clipPath id="f0eca609ba"><path d="M 0 33.058594 L 182 33.058594 L 182 333 L 0 333 Z M 0 33.058594 " clip-rule="nonzero"/></clipPath></defs><g clip-path="url(#4c9e513e6f)"><path fill="#000000" d="M 250.21875 168.722656 C 260.871094 164.664062 272.535156 162.125 284.707031 162.125 C 334.671875 162.378906 374.996094 200.4375 374.996094 247.125 C 374.996094 293.808594 334.671875 332.121094 284.707031 332.121094 C 234.746094 332.121094 194.421875 294.0625 194.421875 247.125 C 181.742188 122.289062 329.34375 33.992188 329.34375 33.992188 L 341.011719 47.949219 C 341.011719 48.203125 243.371094 123.8125 250.21875 168.722656 Z M 250.21875 168.722656 " fill-opacity="1" fill-rule="nonzero"/></g><g clip-path="url(#f0eca609ba)"><path fill="#000000" d="M 57.21875 168.722656 C 67.871094 164.664062 79.539062 162.125 91.710938 162.125 C 141.671875 162.125 181.996094 200.183594 181.996094 247.125 C 181.996094 294.0625 141.671875 332.121094 91.710938 332.121094 C 41.75 332.121094 1.425781 294.0625 1.425781 247.125 C -11.253906 122.289062 136.347656 33.992188 136.347656 33.992188 L 148.011719 47.949219 C 148.011719 48.203125 50.371094 123.8125 57.21875 168.722656 Z M 57.21875 168.722656 " fill-opacity="1" fill-rule="nonzero"/></g></svg>